<svg height="512pt" viewBox="0 0 512 512" width="512pt" xmlns="http://www.w3.org/2000/svg"><path d="m494.839844 323.054688-18.09375-281.769532-104.335938-32.769531-43.496094 43.5v81.929687c8.902344 8.90625 13.898438 13.898438 22.804688 22.804688h26.351562l-22.558593 166.304688zm0 0" fill="#ffe477"/><path d="m360.511719 323.054688-6.1875 55.59375h-151.738281l-68.589844-78.59375h-126.496094v204.089843h461.191406c13.863282-13.863281 21.632813-21.636719 35.496094-35.5l-14.347656-145.589843zm0 0" fill="#ff3f62"/><path d="m381.714844 156.75c-8.902344-8.90625-13.898438-13.898438-22.804688-22.804688v-81.929687l36.328125-36.328125-22.828125-7.167969-43.496094 43.496094v81.929687c8.902344 8.90625 13.898438 13.902344 22.804688 22.804688h26.351562l-22.558593 166.308594h30l22.554687-166.308594zm0 0" fill="#ffb655"/><path d="m384.320312 378.648438 6.191407-55.59375h-30l-6.1875 55.59375zm0 0" fill="#c70024"/><path d="m7.5 300.054688h30v204.089843h-30zm0 0" fill="#c70024"/><path d="m369.484375 164.25-22.558594 166.304688h155.910157l-18.933594-294.882813-113.578125-35.671875-48.910157 48.910156v88.140625l27.199219 27.199219zm-33.070313-53.210938h44.59375l11.996094-11.996093v-35.3125h-35.796875v15h20.796875v14.101562l-3.207031 3.207031h-38.382813v-40.917968l38.085938-38.085938 95.09375 29.863282 17.25 268.65625h-122.746094l20.523438-151.304688h36.070312v-15h-65.867187l-18.410157-18.410156zm0 0"/><path d="m180.347656 234.3125 31.425782-31.425781 10.605468 10.609375-31.425781 31.421875zm0 0"/><path d="m215.375 303.847656h43.226562v15h-43.226562zm0 0"/><path d="m106.410156 166.65625h15v43.226562h-15zm0 0"/><path d="m499.277344 342.320312-14.929688 1.46875 12.03125 122.0625-30.792968 30.792969h-450.585938v-189.089843h115.585938l61.742187 70.746093-27.710937 27.710938 10.609374 10.605469 30.46875-30.46875h145.519532l28.71875 28.714843 10.605468-10.605469-28.363281-28.363281 3.5625-32.007812-14.90625-1.664063-3.21875 28.925782h-141.617187l-68.59375-78.59375h-137.402344v219.089843h471.796875l40.203125-40.203125zm0 0"/><g fill="#fff"><path d="m350.324219 411.148438h-89.722657v-15h89.722657zm-99.722657 0h-15v-15h15zm-25 0h-15v-15h15zm0 0"/><path d="m470.6875 460.066406-6.0625-61.519531 14.925781-1.472656 6.0625 61.519531zm-7.042969-71.46875-1.472656-14.929687 14.925781-1.472657 1.472656 14.929688zm-2.453125-24.878906-1.472656-14.929688 14.929688-1.472656 1.472656 14.929688zm0 0"/><path d="m460.699219 298.535156-5.867188-91.410156 14.96875-.960938 5.867188 91.410157zm-6.507813-101.386718-.964844-14.96875 14.96875-.960938.964844 14.96875zm-1.605468-24.949219-.960938-14.96875 14.96875-.960938.960938 14.96875zm0 0"/></g></svg>